<?xml version="1.0" standalone="no"?>
<!DOCTYPE svg PUBLIC "-//W3C//DTD SVG 20010904//EN"
 "http://www.w3.org/TR/2001/REC-SVG-20010904/DTD/svg10.dtd">
<svg version="1.0" xmlns="http://www.w3.org/2000/svg"
 width="700.000000pt" height="700.000000pt" viewBox="0 0 700.000000 700.000000"
 preserveAspectRatio="xMidYMid meet">
<metadata>
Created by potrace 1.11, written by Peter Selinger 2001-2013
</metadata>
<g transform="translate(0.000000,700.000000) scale(0.100000,-0.100000)"
fill="#000000" stroke="none">
<path d="M2296 6964 c-30 -64 -119 -196 -197 -294 -94 -118 -223 -249 -399
-405 -132 -117 -326 -306 -404 -394 -67 -74 -192 -256 -244 -353 -76 -142
-147 -334 -167 -453 -60 -354 -27 -663 102 -965 42 -97 111 -218 175 -305 24
-33 47 -65 50 -71 5 -7 -34 -10 -125 -10 -119 0 -248 -8 -302 -19 -11 -3 -36
-7 -55 -10 -132 -19 -327 -73 -466 -128 -106 -42 -104 -31 -21 -143 121 -161
264 -292 422 -386 117 -70 330 -158 417 -172 18 -3 49 -10 68 -16 19 -6 54
-13 76 -16 23 -2 53 -7 65 -9 23 -5 89 -12 179 -19 l44 -4 3 -53 c2 -30 5 -65
7 -79 3 -14 5 -42 5 -63 l1 -38 78 64 c115 93 207 154 271 178 23 9 23 9 7
-13 -178 -243 -313 -547 -352 -794 -3 -20 -8 -46 -11 -58 -9 -37 -13 -345 -4
-351 5 -2 35 20 67 51 110 104 207 185 260 217 7 4 4 -17 -7 -55 -44 -140 -60
-344 -37 -466 4 -26 10 -58 13 -70 15 -81 64 -192 127 -285 38 -56 165 -193
173 -186 2 2 6 27 9 56 18 169 64 361 107 450 33 65 58 97 60 72 2 -41 8 -122
14 -179 6 -55 12 -92 40 -221 32 -148 128 -344 220 -443 35 -39 46 -41 52 -8
1 9 11 53 23 96 28 110 112 254 124 215 89 -287 143 -407 229 -508 31 -37 42
-35 51 11 14 68 84 193 141 251 31 31 60 55 64 52 5 -2 11 -30 14 -62 10 -90
46 -239 73 -303 58 -135 149 -276 170 -262 39 26 174 262 174 305 0 6 7 30 14
52 8 22 16 54 19 70 3 17 10 53 16 82 6 29 11 68 13 88 1 19 5 35 9 35 4 0 32
-26 63 -57 61 -62 102 -133 137 -235 l22 -66 42 51 c59 70 146 241 169 332 2
6 6 17 9 25 3 8 13 40 22 70 9 30 19 62 21 70 8 24 61 -47 93 -125 16 -38 37
-105 47 -147 l18 -77 39 42 c112 119 215 352 243 546 2 19 6 37 9 41 4 6 14
103 20 201 2 24 4 50 4 58 2 25 28 -7 60 -72 29 -59 72 -212 86 -307 4 -25 9
-53 11 -64 2 -10 6 -44 10 -75 3 -31 8 -58 10 -60 6 -7 144 141 179 193 47 71
88 164 115 261 34 121 37 315 6 455 -13 58 -28 118 -35 133 -12 31 -11 31 49
-12 47 -34 136 -111 215 -186 62 -59 64 -60 68 -35 9 42 6 251 -4 310 -29 184
-40 228 -91 370 -51 143 -175 377 -249 471 -16 20 -29 42 -29 48 0 15 99 -40
183 -100 67 -49 82 -61 140 -111 17 -15 32 -26 34 -25 1 2 12 110 18 187 1 19
3 38 4 41 0 3 13 5 29 6 40 0 195 14 202 18 3 1 25 6 50 9 143 20 353 91 510
173 139 73 303 206 414 335 44 50 126 170 126 183 0 26 -405 153 -547 170 -26
4 -55 8 -63 10 -35 10 -164 18 -292 19 -128 0 -137 1 -125 17 241 330 345 626
351 998 6 419 -142 794 -459 1160 -96 111 -233 244 -440 426 -236 209 -415
420 -528 624 l-34 62 -40 -78 c-82 -160 -105 -306 -73 -458 7 -33 13 -64 14
-70 1 -5 12 -39 26 -75 55 -149 150 -300 376 -600 309 -409 386 -571 380 -800
-6 -225 -80 -371 -224 -438 -49 -23 -70 -27 -152 -27 -84 0 -101 3 -147 27
-65 35 -120 90 -146 148 -27 61 -27 213 1 323 l19 77 -36 -6 c-116 -19 -226
-66 -320 -136 -81 -61 -221 -205 -221 -228 0 -5 -3 -10 -7 -10 -5 0 -24 -27
-43 -60 -19 -33 -38 -60 -42 -60 -9 0 -54 99 -62 135 -13 67 -16 93 -17 163
-1 39 -5 72 -8 72 -35 0 -168 -53 -263 -106 -37 -20 -150 -132 -173 -172 -22
-37 -31 -40 -40 -11 -11 33 -145 161 -208 198 -57 34 -155 73 -213 85 l-32 7
-1 -73 c-1 -100 -18 -183 -49 -245 -14 -29 -28 -53 -31 -53 -3 1 -25 31 -48
68 -124 200 -312 355 -493 406 -74 21 -133 30 -127 18 4 -5 9 -22 11 -38 3
-16 12 -58 19 -94 21 -100 13 -221 -19 -282 -23 -44 -80 -95 -138 -125 -73
-38 -189 -43 -269 -13 -163 61 -246 208 -253 447 -3 134 14 208 80 349 56 117
124 220 321 484 179 239 234 320 292 430 143 272 153 506 33 739 -45 86 -44
85 -64 45z m-1011 -3478 c87 -7 183 -31 210 -54 51 -43 66 -62 63 -79 -2 -10
-9 -17 -14 -16 -5 1 -57 8 -114 17 -98 14 -137 18 -265 30 -48 5 -230 15 -360
21 -94 4 -95 5 -12 30 121 37 308 65 397 58 14 -1 57 -4 95 -7z m4775 -17
c116 -21 236 -56 205 -59 -11 -1 -47 -3 -80 -5 -176 -8 -366 -21 -455 -31 -86
-10 -265 -36 -272 -40 -4 -2 -10 6 -14 18 -5 18 1 29 36 59 38 33 70 46 155
65 11 3 49 7 85 11 36 3 66 6 67 7 9 8 188 -9 273 -25z m-3103 -13 c85 -44
127 -159 90 -247 -47 -113 -180 -157 -284 -93 -172 107 -86 377 114 359 29 -2
65 -11 80 -19z m1232 14 c107 -29 171 -160 127 -263 -63 -153 -279 -162 -354
-15 -79 154 59 323 227 278z m-204 -1224 c132 -40 243 -149 282 -279 68 -226
-66 -463 -297 -527 -52 -15 -795 -21 -894 -8 -156 21 -298 141 -343 291 -20
66 -20 177 0 244 19 64 74 149 125 193 50 44 149 89 208 97 27 3 50 6 51 7 1
1 183 1 405 1 356 -1 410 -3 463 -19z m-960 -898 c45 -12 816 -16 905 -5 30 3
70 11 88 16 17 5 32 8 32 5 0 -2 -13 -32 -29 -67 -51 -110 -129 -181 -248
-222 -59 -21 -84 -23 -263 -24 -223 -1 -280 9 -369 62 -69 42 -127 107 -162
184 -34 73 -35 77 -11 68 9 -4 35 -12 57 -17z"/>
<path d="M3130 1967 c-52 -27 -62 -104 -19 -143 13 -12 36 -19 61 -19 104 0
116 151 13 170 -17 3 -41 0 -55 -8z"/>
<path d="M3772 1955 c-21 -18 -27 -32 -27 -64 0 -55 30 -86 85 -86 54 0 85 31
85 85 0 76 -85 115 -143 65z"/>
</g>
</svg>
